<svg width="315" height="216" viewBox="0 0 315 216" fill="none" xmlns="http://www.w3.org/2000/svg">
<path d="M277.93 48.6886C297.683 56.6835 295.801 91.0146 277.93 99.4797" stroke="#EB5757"/>
<path d="M280.255 89.5841L277.758 99.7159L286.862 101.625" stroke="#EB5757"/>
<path d="M10.8318 34.4664C8.69312 34.4664 6.88647 35.1793 5.42163 36.6051C3.95679 38.0309 3.22437 39.7496 3.22437 41.7614C3.22437 43.7731 3.95679 45.5016 5.42163 46.9274C6.88647 48.3531 8.69312 49.066 10.8318 49.066C11.5544 49.066 12.2576 48.9684 12.9412 48.7633C13.6248 48.568 14.1716 48.3434 14.5916 48.0992C15.0115 47.8551 15.4021 47.5719 15.7732 47.2496C16.1443 46.9274 16.3787 46.7028 16.4861 46.5758C16.5935 46.4489 16.6716 46.3414 16.7302 46.2633L14.9236 44.359L14.7673 44.5641C14.6599 44.7106 14.4939 44.8766 14.2595 45.0719C14.0251 45.2672 13.7517 45.4625 13.449 45.6578C13.1365 45.8531 12.7556 46.0192 12.2869 46.1559C11.8181 46.2926 11.3396 46.361 10.8318 46.361C9.52319 46.361 8.42944 45.9215 7.55054 45.0426C6.67163 44.1637 6.23218 43.0699 6.23218 41.7614C6.23218 40.4528 6.67163 39.359 7.55054 38.4801C8.42944 37.6012 9.52319 37.1617 10.8318 37.1617C11.3005 37.1617 11.7693 37.2399 12.2283 37.3864C12.6775 37.5328 13.0486 37.6891 13.3318 37.8649C13.6052 38.0406 13.8689 38.236 14.1033 38.4606C14.3376 38.6949 14.4939 38.8512 14.5623 38.9489C14.6306 39.0465 14.6892 39.1149 14.7283 39.1637L16.6326 37.2594L16.408 36.9664C16.2615 36.7809 16.0271 36.5465 15.6951 36.2731C15.363 35.9996 14.9919 35.7262 14.5623 35.4528C14.1326 35.1793 13.5955 34.9547 12.9314 34.7594C12.2673 34.5641 11.5642 34.4664 10.8318 34.4664ZM23.9275 48.7633H26.6228V42.6598C26.6228 41.5465 26.2322 40.6188 25.4509 39.8766C24.6697 39.1344 23.6541 38.7633 22.4236 38.7633C21.9451 38.7633 21.4763 38.8414 21.0173 38.9781C20.5681 39.1149 20.197 39.2711 19.9138 39.4371C19.6404 39.6031 19.3767 39.7887 19.1423 40.0035C18.908 40.2184 18.7517 40.3746 18.6833 40.4625C18.615 40.5504 18.5564 40.6188 18.5173 40.6676L20.0115 42.1617L20.2361 41.9274C20.3923 41.7516 20.6462 41.5856 21.0076 41.4196C21.3787 41.2535 21.7791 41.1656 22.2185 41.1656C22.7556 41.1656 23.1755 41.3024 23.4685 41.5563C23.7712 41.8199 23.9177 42.152 23.9177 42.5621L20.8123 43.1188C19.9138 43.2848 19.2009 43.6364 18.6833 44.1637C18.1755 44.7008 17.9119 45.3649 17.9119 46.1656C17.9119 46.9469 18.2244 47.6012 18.8298 48.1481C19.4451 48.6949 20.2361 48.9586 21.2126 48.9586C21.7205 48.9586 22.2087 48.8512 22.6775 48.6364C23.1462 48.4215 23.4587 48.2457 23.5955 48.109C23.7322 47.9723 23.8396 47.8649 23.9177 47.7672L23.9275 48.7633ZM21.9158 46.7614C21.0564 46.7614 20.6169 46.4293 20.6169 45.7653C20.6169 45.15 20.988 44.7789 21.7205 44.6617L23.9177 44.2614V44.5641C23.9177 45.2574 23.7419 45.7946 23.3806 46.1852C23.0193 46.5758 22.531 46.7614 21.9158 46.7614ZM34.533 46.361L37.1306 42.9625V48.7633H39.8259V38.9586H37.531L34.533 42.8649L31.5251 38.9586H29.2302V48.7633H31.9255V42.9625L34.533 46.361ZM54.533 38.9586H51.8279V48.7633H54.533V38.9586ZM45.1287 46.566V44.1637H46.7302C47.072 44.1637 47.3552 44.2809 47.5798 44.5055C47.8142 44.7399 47.9216 45.0231 47.9216 45.3649C47.9216 45.7164 47.8142 45.9996 47.5798 46.2242C47.3552 46.4586 47.072 46.566 46.7302 46.566H45.1287ZM50.6365 45.3649C50.6365 44.3492 50.2947 43.5289 49.6208 42.9039C48.9373 42.2789 48.0095 41.9664 46.8279 41.9664H45.1287V38.9586H42.4333V48.7633H46.8279C48.0193 48.7633 48.947 48.4508 49.6208 47.8258C50.2947 47.2008 50.6365 46.3805 50.6365 45.3649ZM61.74 35.8629C61.3884 35.8629 61.1052 35.7555 60.8806 35.5211C60.6462 35.2965 60.5388 35.0133 60.5388 34.6715H58.5369C58.5369 35.5211 58.8298 36.234 59.4353 36.8102C60.0408 37.3766 60.8025 37.6696 61.74 37.6696C62.6677 37.6696 63.4294 37.3766 64.0349 36.8102C64.6404 36.234 64.9431 35.5211 64.9431 34.6715H62.9412C62.9412 35.0133 62.824 35.2965 62.5994 35.5211C62.365 35.7555 62.0818 35.8629 61.74 35.8629ZM64.0837 38.9586L59.8357 44.4664V38.9586H57.1404V48.7633H59.4744L63.7419 43.2653V48.7633H66.4373V38.9586H64.0837ZM83.0388 44.066C83.0388 42.7379 82.5701 41.5856 81.6423 40.6188C80.7146 39.652 79.6501 39.1637 78.4392 39.1637C78.0974 39.1637 77.7654 39.2223 77.4431 39.3199C77.1111 39.4176 76.8474 39.5348 76.6326 39.6617C76.4177 39.7887 76.2224 39.9352 76.0369 40.0914C75.8416 40.2477 75.7244 40.3551 75.6658 40.4137C75.6072 40.4723 75.5583 40.5211 75.5388 40.5602C75.6755 39.7594 76.0173 39.0953 76.5544 38.5582C77.0818 38.0211 77.7751 37.6598 78.6345 37.4645C79.572 37.2496 80.3826 37.025 81.0466 36.7711C81.7107 36.527 82.1111 36.361 82.2478 36.2731C82.3845 36.1949 82.4724 36.1266 82.531 36.068L81.3396 34.066L80.9978 34.2418C80.7634 34.359 80.363 34.4957 79.7771 34.6715C79.1912 34.8473 78.5369 35.0133 77.8337 35.1598C76.2322 35.4918 74.9919 36.234 74.1326 37.3961C73.2634 38.568 72.8337 40.2867 72.8337 42.5621C72.8337 44.6031 73.3123 46.1754 74.2791 47.2887C75.2458 48.402 76.5349 48.9586 78.1365 48.9586C79.5623 48.9586 80.7341 48.4899 81.6521 47.5426C82.5701 46.6051 83.0388 45.443 83.0388 44.066ZM75.8318 44.066C75.8318 43.3336 76.0466 42.7379 76.4958 42.2692C76.9353 41.8004 77.4822 41.566 78.1365 41.566C78.7419 41.566 79.2595 41.8004 79.6892 42.2692C80.1189 42.7379 80.3337 43.3336 80.3337 44.066C80.3337 44.7985 80.1189 45.3942 79.6892 45.8629C79.2595 46.3317 78.7419 46.566 78.1365 46.566C77.4822 46.566 76.9353 46.3317 76.4958 45.8629C76.0466 45.3942 75.8318 44.7985 75.8318 44.066ZM97.3455 38.9586H94.6404V48.7633H97.3455V38.9586ZM87.9412 46.566V44.1637H89.5427C89.8845 44.1637 90.1677 44.2809 90.3923 44.5055C90.6267 44.7399 90.7341 45.0231 90.7341 45.3649C90.7341 45.7164 90.6267 45.9996 90.3923 46.2242C90.1677 46.4586 89.8845 46.566 89.5427 46.566H87.9412ZM93.449 45.3649C93.449 44.3492 93.1072 43.5289 92.4333 42.9039C91.7498 42.2789 90.822 41.9664 89.6404 41.9664H87.9412V38.9586H85.2458V48.7633H89.6404C90.8318 48.7633 91.7595 48.4508 92.4333 47.8258C93.1072 47.2008 93.449 46.3805 93.449 45.3649ZM99.3474 43.861C99.3474 45.2281 99.865 46.4196 100.92 47.4352C101.965 48.4508 103.205 48.9586 104.64 48.9586C105.148 48.9586 105.636 48.8903 106.095 48.7438C106.554 48.5973 106.926 48.441 107.209 48.2653C107.502 48.0895 107.765 47.8942 108.01 47.6696C108.263 47.4449 108.42 47.2887 108.488 47.191C108.556 47.0934 108.605 47.025 108.644 46.9664L107.043 45.2672L106.779 45.5992C106.603 45.8141 106.31 46.0289 105.91 46.2438C105.51 46.4586 105.09 46.566 104.64 46.566C103.937 46.566 103.332 46.3024 102.814 45.775C102.306 45.2477 102.043 44.6129 102.043 43.8707C102.043 43.1285 102.306 42.484 102.814 41.9567C103.322 41.4293 103.937 41.1656 104.64 41.1656C105.09 41.1656 105.51 41.2926 105.91 41.527C106.31 41.7614 106.574 41.9567 106.691 42.1031C106.808 42.2594 106.896 42.3766 106.945 42.4645L108.644 40.7653L108.498 40.5602C108.4 40.4235 108.234 40.2477 108 40.0524C107.775 39.8571 107.511 39.6715 107.219 39.4762C106.926 39.2809 106.554 39.1149 106.095 38.9781C105.636 38.8414 105.148 38.7633 104.64 38.7633C103.205 38.7633 101.965 39.2809 100.91 40.2965C99.865 41.3121 99.3474 42.5035 99.3474 43.861ZM109.455 41.566H112.56V48.7633H115.256V41.566H118.361V38.9586H109.455V41.566ZM125.549 48.9586C126.818 48.9586 127.912 48.4703 128.849 47.484C129.787 46.4977 130.256 45.2867 130.256 43.861C130.256 42.4352 129.787 41.234 128.849 40.2477C127.912 39.2614 126.818 38.7633 125.549 38.7633C125.187 38.7633 124.845 38.8219 124.513 38.9196C124.181 39.0172 123.908 39.1344 123.703 39.2614C123.488 39.3883 123.293 39.5348 123.117 39.691C122.941 39.8473 122.824 39.9547 122.765 40.0133C122.707 40.0719 122.668 40.1207 122.648 40.1598V38.9586H119.953V52.9625H122.648V47.5621L122.951 47.9235C123.146 48.1578 123.488 48.3824 123.976 48.6168C124.465 48.8512 124.982 48.9586 125.549 48.9586ZM125.051 41.1656C125.715 41.1656 126.281 41.4196 126.75 41.9274C127.219 42.4352 127.453 43.0797 127.453 43.8707C127.453 44.652 127.219 45.3063 126.75 45.8141C126.281 46.3219 125.715 46.5758 125.051 46.5758C124.386 46.5758 123.82 46.3219 123.351 45.8141C122.883 45.3063 122.648 44.652 122.648 43.8707C122.648 43.0797 122.883 42.4352 123.351 41.9274C123.82 41.4196 124.386 41.1656 125.051 41.1656ZM144.357 38.9586H141.652V48.7633H144.357V38.9586ZM134.953 46.566V44.1637H136.554C136.896 44.1637 137.179 44.2809 137.404 44.5055C137.638 44.7399 137.746 45.0231 137.746 45.3649C137.746 45.7164 137.638 45.9996 137.404 46.2242C137.179 46.4586 136.896 46.566 136.554 46.566H134.953ZM140.461 45.3649C140.461 44.3492 140.119 43.5289 139.445 42.9039C138.761 42.2789 137.834 41.9664 136.652 41.9664H134.953V38.9586H132.258V48.7633H136.652C137.844 48.7633 138.771 48.4508 139.445 47.8258C140.119 47.2008 140.461 46.3805 140.461 45.3649ZM151.564 35.8629C151.213 35.8629 150.929 35.7555 150.705 35.5211C150.47 35.2965 150.363 35.0133 150.363 34.6715H148.361C148.361 35.5211 148.654 36.234 149.26 36.8102C149.865 37.3766 150.627 37.6696 151.564 37.6696C152.492 37.6696 153.254 37.3766 153.859 36.8102C154.465 36.234 154.767 35.5211 154.767 34.6715H152.765C152.765 35.0133 152.648 35.2965 152.424 35.5211C152.189 35.7555 151.906 35.8629 151.564 35.8629ZM153.908 38.9586L149.66 44.4664V38.9586H146.965V48.7633H149.299L153.566 43.2653V48.7633H156.261V38.9586H153.908ZM165.656 41.361H169.455V48.7633H172.16V38.9586H162.961V48.7633H165.656V41.361ZM176.955 43.8707C176.955 43.1383 177.189 42.5231 177.668 42.0153C178.136 41.5172 178.703 41.2633 179.357 41.2633C180.002 41.2633 180.568 41.5172 181.047 42.0153C181.515 42.5231 181.76 43.1383 181.76 43.8707C181.76 44.6031 181.515 45.2184 181.047 45.7164C180.568 46.2145 180.002 46.4586 179.357 46.4586C178.703 46.4586 178.136 46.2145 177.668 45.7164C177.189 45.2184 176.955 44.6031 176.955 43.8707ZM184.552 43.861C184.552 42.5035 184.035 41.3121 183 40.2965C181.965 39.2809 180.754 38.7731 179.357 38.7731C177.951 38.7731 176.74 39.2809 175.705 40.2965C174.67 41.3121 174.152 42.5035 174.152 43.861C174.152 45.2281 174.67 46.4196 175.705 47.4352C176.74 48.4508 177.951 48.9586 179.357 48.9586C180.754 48.9586 181.965 48.4508 183 47.4352C184.035 46.4196 184.552 45.2281 184.552 43.861ZM193.498 38.9586L189.25 44.4664V38.9586H186.554V48.7633H188.888L193.156 43.2653V48.7633H195.851V38.9586H193.498ZM197.844 43.861C197.844 45.2281 198.361 46.4196 199.416 47.4352C200.461 48.4508 201.701 48.9586 203.136 48.9586C203.644 48.9586 204.133 48.8903 204.592 48.7438C205.051 48.5973 205.422 48.441 205.705 48.2653C205.998 48.0895 206.261 47.8942 206.506 47.6696C206.76 47.4449 206.916 47.2887 206.984 47.191C207.052 47.0934 207.101 47.025 207.14 46.9664L205.539 45.2672L205.275 45.5992C205.099 45.8141 204.806 46.0289 204.406 46.2438C204.006 46.4586 203.586 46.566 203.136 46.566C202.433 46.566 201.828 46.3024 201.31 45.775C200.802 45.2477 200.539 44.6129 200.539 43.8707C200.539 43.1285 200.802 42.484 201.31 41.9567C201.818 41.4293 202.433 41.1656 203.136 41.1656C203.586 41.1656 204.006 41.2926 204.406 41.527C204.806 41.7614 205.07 41.9567 205.187 42.1031C205.304 42.2594 205.392 42.3766 205.441 42.4645L207.14 40.7653L206.994 40.5602C206.896 40.4235 206.73 40.2477 206.496 40.0524C206.271 39.8571 206.008 39.6715 205.715 39.4762C205.422 39.2809 205.051 39.1149 204.592 38.9781C204.133 38.8414 203.644 38.7633 203.136 38.7633C201.701 38.7633 200.461 39.2809 199.406 40.2965C198.361 41.3121 197.844 42.5035 197.844 43.861ZM218.254 38.9586H215.158L211.652 42.9625V38.9586H208.957V48.7633H211.652V46.361L212.853 44.9645L215.451 48.7633H218.459L214.552 43.1676L218.254 38.9586ZM2.13062 70.361V75.068H4.82593V72.7633H10.4314V75.068H13.1267V70.361H11.8279V62.9586H4.32788V65.6637C4.32788 66.2789 4.26929 66.8649 4.1521 67.4215C4.03491 67.9684 3.90796 68.4176 3.77124 68.7496C3.63452 69.0817 3.46851 69.3942 3.28296 69.6774C3.09741 69.9508 2.97046 70.1266 2.89233 70.2047C2.81421 70.2731 2.76538 70.3317 2.72632 70.3707L2.13062 70.361ZM6.82788 65.3707H9.13257V70.3707H5.52905L5.87085 69.8531C6.08569 69.5016 6.29077 68.9645 6.50562 68.2321C6.72046 67.4996 6.82788 66.7477 6.82788 65.9762V65.3707ZM21.8767 62.9586L17.6287 68.4664V62.9586H14.9333V72.7633H17.2673L21.5349 67.2653V72.7633H24.2302V62.9586H21.8767ZM33.7224 65.6637C33.7224 64.8824 33.3708 64.1989 32.6775 63.6227C31.9841 63.0563 31.0662 62.7633 29.9236 62.7633C29.4451 62.7633 28.9861 62.8219 28.5369 62.9391C28.0876 63.0563 27.7263 63.1832 27.4626 63.3199C27.1892 63.4567 26.9451 63.6227 26.7107 63.8082C26.4763 63.9938 26.3298 64.1207 26.2615 64.1989C26.1931 64.277 26.1443 64.3258 26.1248 64.3649L27.6287 65.859L27.8826 65.6442C28.0583 65.4879 28.3123 65.3317 28.6443 65.1852C28.9763 65.0387 29.3083 64.9606 29.6306 64.9606C30.49 64.9703 30.9294 65.3024 30.9294 65.9664C30.9294 66.2399 30.8123 66.4547 30.5974 66.6207C30.3826 66.7867 30.0603 66.8649 29.6306 66.8649H28.6248V68.6617H29.6306C30.6853 68.6715 31.2224 69.0035 31.2224 69.6676C31.2224 69.9899 31.0857 70.2535 30.8123 70.4586C30.5388 70.6637 30.1482 70.7614 29.6306 70.7614C29.1814 70.7614 28.7615 70.6637 28.3611 70.4586C27.9607 70.2535 27.697 70.0875 27.5798 69.9703C27.4626 69.8531 27.3748 69.7457 27.3259 69.6676L25.822 71.1617L25.988 71.3668C26.0759 71.484 26.2322 71.6305 26.4666 71.8063C26.6912 71.9821 26.9548 72.1481 27.2576 72.3239C27.5701 72.4996 27.9607 72.6559 28.4294 72.7731C28.8982 72.9 29.3962 72.9586 29.9138 72.9586C31.2517 72.9586 32.2869 72.6852 33.0193 72.1188C33.7517 71.5524 34.113 70.8688 34.113 70.068C34.113 69.7067 34.0447 69.3746 33.8982 69.0817C33.7517 68.7887 33.5955 68.5641 33.4197 68.3981C33.2439 68.2321 33.0486 68.0856 32.8142 67.9684C32.5896 67.8512 32.4333 67.7731 32.3357 67.734C32.2478 67.7047 32.1794 67.6852 32.1208 67.6754L32.2771 67.6168C32.3845 67.5875 32.5212 67.5192 32.6873 67.4215C32.8435 67.3239 33.0095 67.1969 33.1658 67.0602C33.322 66.9235 33.4587 66.7281 33.5662 66.484C33.6638 66.2301 33.7224 65.9567 33.7224 65.6637ZM41.5251 72.7633H44.2205V66.6598C44.2205 65.5465 43.8298 64.6188 43.0486 63.8766C42.2673 63.1344 41.2517 62.7633 40.0212 62.7633C39.5427 62.7633 39.074 62.8414 38.615 62.9781C38.1658 63.1149 37.7947 63.2711 37.5115 63.4371C37.238 63.6031 36.9744 63.7887 36.74 64.0035C36.5056 64.2184 36.3494 64.3746 36.281 64.4625C36.2126 64.5504 36.1541 64.6188 36.115 64.6676L37.6091 66.1617L37.8337 65.9274C37.99 65.7516 38.2439 65.5856 38.6052 65.4196C38.9763 65.2535 39.3767 65.1656 39.8162 65.1656C40.3533 65.1656 40.7732 65.3024 41.0662 65.5563C41.3689 65.8199 41.5154 66.152 41.5154 66.5621L38.4099 67.1188C37.5115 67.2848 36.7986 67.6364 36.281 68.1637C35.7732 68.7008 35.5095 69.3649 35.5095 70.1656C35.5095 70.9469 35.822 71.6012 36.4275 72.1481C37.0427 72.6949 37.8337 72.9586 38.8103 72.9586C39.3181 72.9586 39.8064 72.8512 40.2751 72.6364C40.7439 72.4215 41.0564 72.2457 41.1931 72.109C41.3298 71.9723 41.4373 71.8649 41.5154 71.7672L41.5251 72.7633ZM39.5134 70.7614C38.6541 70.7614 38.2146 70.4293 38.2146 69.7653C38.2146 69.15 38.5857 68.7789 39.3181 68.6617L41.5154 68.2614V68.5641C41.5154 69.2574 41.3396 69.7946 40.9783 70.1852C40.6169 70.5758 40.1287 70.7614 39.5134 70.7614ZM51.4275 59.8629C51.0759 59.8629 50.7927 59.7555 50.5681 59.5211C50.3337 59.2965 50.2263 59.0133 50.2263 58.6715H48.2244C48.2244 59.5211 48.5173 60.234 49.1228 60.8102C49.7283 61.3766 50.49 61.6696 51.4275 61.6696C52.3552 61.6696 53.1169 61.3766 53.7224 60.8102C54.3279 60.234 54.6306 59.5211 54.6306 58.6715H52.6287C52.6287 59.0133 52.5115 59.2965 52.2869 59.5211C52.0525 59.7555 51.7693 59.8629 51.4275 59.8629ZM53.7712 62.9586L49.5232 68.4664V62.9586H46.8279V72.7633H49.1619L53.4294 67.2653V72.7633H56.1248V62.9586H53.7712ZM61.4177 69.0621H65.2166V72.7633H67.9216V62.9586H65.2166V66.6598H61.4177V62.9586H58.7224V72.7633H61.4177V69.0621ZM79.8162 68.7594L79.9138 67.6656C79.9138 66.2692 79.4451 65.1071 78.5173 64.1696C77.5798 63.2321 76.4177 62.7633 75.0212 62.7633C73.615 62.7633 72.4138 63.2711 71.4177 64.2672C70.4119 65.2633 69.9138 66.4645 69.9138 67.861C69.9138 69.2672 70.4216 70.4684 71.4373 71.4645C72.4529 72.4606 73.6736 72.9586 75.1189 72.9586C75.6267 72.9586 76.115 72.9 76.5935 72.7828C77.072 72.6656 77.4626 72.5387 77.7654 72.3824C78.0583 72.2262 78.3416 72.0504 78.615 71.8551C78.8787 71.6598 79.0544 71.5231 79.1326 71.4449L79.3181 71.2594L77.9216 69.4625L77.6384 69.7653C77.4626 69.9703 77.1501 70.1754 76.7205 70.3707C76.2908 70.566 75.822 70.6637 75.3142 70.6637C74.6111 70.6637 74.0251 70.4879 73.5662 70.1168C73.0974 69.7457 72.8142 69.2965 72.7166 68.7594H79.8162ZM75.0212 65.068C75.5876 65.068 76.0759 65.2438 76.4666 65.5758C76.8572 65.9176 77.1111 66.3473 77.2185 66.8649H72.7166C72.8728 66.3375 73.156 65.8981 73.5564 65.566C73.9568 65.234 74.4451 65.068 75.0212 65.068ZM87.5212 72.9586C88.7908 72.9586 89.8845 72.4703 90.822 71.484C91.7595 70.4977 92.2283 69.2867 92.2283 67.861C92.2283 66.4352 91.7595 65.234 90.822 64.2477C89.8845 63.2614 88.7908 62.7633 87.5212 62.7633C87.1599 62.7633 86.8181 62.8219 86.4861 62.9196C86.1541 63.0172 85.8806 63.1344 85.6755 63.2614C85.4607 63.3883 85.2654 63.5348 85.0896 63.691C84.9138 63.8473 84.7966 63.9547 84.738 64.0133C84.6794 64.0719 84.6404 64.1207 84.6208 64.1598V62.9586H81.9255V76.9625H84.6208V71.5621L84.9236 71.9235C85.1189 72.1578 85.4607 72.3824 85.949 72.6168C86.4373 72.8512 86.9548 72.9586 87.5212 72.9586ZM87.0232 65.1656C87.6873 65.1656 88.2537 65.4196 88.7224 65.9274C89.1912 66.4352 89.4255 67.0797 89.4255 67.8707C89.4255 68.652 89.1912 69.3063 88.7224 69.8141C88.2537 70.3219 87.6873 70.5758 87.0232 70.5758C86.3591 70.5758 85.7927 70.3219 85.324 69.8141C84.8552 69.3063 84.6208 68.652 84.6208 67.8707C84.6208 67.0797 84.8552 66.4352 85.324 65.9274C85.7927 65.4196 86.3591 65.1656 87.0232 65.1656ZM99.6306 72.7633H102.326V66.6598C102.326 65.5465 101.935 64.6188 101.154 63.8766C100.373 63.1344 99.3572 62.7633 98.1267 62.7633C97.6482 62.7633 97.1794 62.8414 96.7205 62.9781C96.2712 63.1149 95.9001 63.2711 95.6169 63.4371C95.3435 63.6031 95.0798 63.7887 94.8455 64.0035C94.6111 64.2184 94.4548 64.3746 94.3865 64.4625C94.3181 64.5504 94.2595 64.6188 94.2205 64.6676L95.7146 66.1617L95.9392 65.9274C96.0955 65.7516 96.3494 65.5856 96.7107 65.4196C97.0818 65.2535 97.4822 65.1656 97.9216 65.1656C98.4587 65.1656 98.8787 65.3024 99.1716 65.5563C99.4744 65.8199 99.6208 66.152 99.6208 66.5621L96.5154 67.1188C95.6169 67.2848 94.9041 67.6364 94.3865 68.1637C93.8787 68.7008 93.615 69.3649 93.615 70.1656C93.615 70.9469 93.9275 71.6012 94.533 72.1481C95.1482 72.6949 95.9392 72.9586 96.9158 72.9586C97.4236 72.9586 97.9119 72.8512 98.3806 72.6364C98.8494 72.4215 99.1619 72.2457 99.2986 72.109C99.4353 71.9723 99.5427 71.8649 99.6208 71.7672L99.6306 72.7633ZM97.6189 70.7614C96.7595 70.7614 96.3201 70.4293 96.3201 69.7653C96.3201 69.15 96.6912 68.7789 97.4236 68.6617L99.6208 68.2614V68.5641C99.6208 69.2574 99.4451 69.7946 99.0837 70.1852C98.7224 70.5758 98.2341 70.7614 97.6189 70.7614ZM109.035 62.9586V72.7633H114.133C115.197 72.7633 116.047 72.4899 116.681 71.9332C117.316 71.3864 117.638 70.693 117.638 69.8629C117.638 69.5504 117.58 69.2574 117.463 68.984C117.345 68.7203 117.219 68.5153 117.082 68.359C116.945 68.2028 116.779 68.066 116.594 67.9489C116.398 67.8317 116.271 67.7535 116.203 67.7242C116.125 67.7047 116.076 67.6852 116.037 67.6656L116.33 67.4801C116.525 67.3824 116.73 67.1578 116.935 66.8258C117.131 66.4938 117.238 66.1129 117.238 65.6637C117.238 64.9313 116.926 64.2965 116.32 63.7594C115.705 63.2321 114.914 62.9586 113.937 62.9586H109.035ZM113.937 68.5641C114.24 68.5641 114.484 68.6617 114.66 68.8473C114.836 69.0328 114.933 69.2672 114.933 69.5602C114.933 69.8531 114.836 70.0973 114.66 70.2828C114.484 70.4781 114.24 70.566 113.937 70.566H111.73V68.5641H113.937ZM114.533 65.9664C114.533 66.5035 114.26 66.7672 113.732 66.7672H111.73V65.1656H113.732C114.26 65.1656 114.533 65.4391 114.533 65.9664ZM123.742 72.7633H137.238V62.9586H134.543V70.361H131.838V62.9586H129.142V70.361H126.437V62.9586H123.742V72.7633ZM138.732 65.566H141.838V72.7633H144.533V65.566H147.638V62.9586H138.732V65.566ZM154.631 72.7633H157.326V66.6598C157.326 65.5465 156.935 64.6188 156.154 63.8766C155.373 63.1344 154.357 62.7633 153.127 62.7633C152.648 62.7633 152.179 62.8414 151.72 62.9781C151.271 63.1149 150.9 63.2711 150.617 63.4371C150.344 63.6031 150.08 63.7887 149.845 64.0035C149.611 64.2184 149.455 64.3746 149.386 64.4625C149.318 64.5504 149.26 64.6188 149.22 64.6676L150.715 66.1617L150.939 65.9274C151.095 65.7516 151.349 65.5856 151.711 65.4196C152.082 65.2535 152.482 65.1656 152.922 65.1656C153.459 65.1656 153.879 65.3024 154.172 65.5563C154.474 65.8199 154.621 66.152 154.621 66.5621L151.515 67.1188C150.617 67.2848 149.904 67.6364 149.386 68.1637C148.879 68.7008 148.615 69.3649 148.615 70.1656C148.615 70.9469 148.927 71.6012 149.533 72.1481C150.148 72.6949 150.939 72.9586 151.916 72.9586C152.424 72.9586 152.912 72.8512 153.381 72.6364C153.849 72.4215 154.162 72.2457 154.299 72.109C154.435 71.9723 154.543 71.8649 154.621 71.7672L154.631 72.7633ZM152.619 70.7614C151.76 70.7614 151.32 70.4293 151.32 69.7653C151.32 69.15 151.691 68.7789 152.424 68.6617L154.621 68.2614V68.5641C154.621 69.2574 154.445 69.7946 154.084 70.1852C153.722 70.5758 153.234 70.7614 152.619 70.7614ZM158.927 65.566H162.033V72.7633H164.728V65.566H167.834V62.9586H158.927V65.566ZM180.47 62.9586L176.222 68.4664V62.9586H173.527V72.7633H175.861L180.129 67.2653V72.7633H182.824V62.9586H180.47ZM186.418 62.9586V65.6637C186.418 67.0309 186.34 68.066 186.203 68.7789C186.066 69.4918 185.881 69.9508 185.656 70.1559C185.422 70.361 185.109 70.4586 184.719 70.4586C184.523 70.4586 184.318 70.4293 184.123 70.361V72.7633L184.299 72.8414C184.406 72.8805 184.572 72.9293 184.806 72.9879C185.041 73.0465 185.275 73.066 185.519 73.066C186.261 73.066 186.877 72.8805 187.365 72.5094C187.853 72.1383 188.244 71.4059 188.556 70.3317C188.869 69.2574 189.025 67.8024 189.025 65.9762V65.3707H191.623V72.7731H194.318V62.9684L186.418 62.9586ZM203.869 62.9586L199.621 68.4664V62.9586H196.926V72.7633H199.26L203.527 67.2653V72.7633H206.222V62.9586H203.869ZM215.617 69.0621H219.416V72.7633H222.121V62.9586H219.416V66.6598H215.617V62.9586H212.922V72.7633H215.617V69.0621ZM230.119 72.7633H232.814V66.6598C232.814 65.5465 232.424 64.6188 231.642 63.8766C230.861 63.1344 229.845 62.7633 228.615 62.7633C228.136 62.7633 227.668 62.8414 227.209 62.9781C226.76 63.1149 226.388 63.2711 226.105 63.4371C225.832 63.6031 225.568 63.7887 225.334 64.0035C225.099 64.2184 224.943 64.3746 224.875 64.4625C224.806 64.5504 224.748 64.6188 224.709 64.6676L226.203 66.1617L226.427 65.9274C226.584 65.7516 226.838 65.5856 227.199 65.4196C227.57 65.2535 227.97 65.1656 228.41 65.1656C228.947 65.1656 229.367 65.3024 229.66 65.5563C229.963 65.8199 230.109 66.152 230.109 66.5621L227.004 67.1188C226.105 67.2848 225.392 67.6364 224.875 68.1637C224.367 68.7008 224.103 69.3649 224.103 70.1656C224.103 70.9469 224.416 71.6012 225.021 72.1481C225.636 72.6949 226.427 72.9586 227.404 72.9586C227.912 72.9586 228.4 72.8512 228.869 72.6364C229.338 72.4215 229.65 72.2457 229.787 72.109C229.924 71.9723 230.031 71.8649 230.109 71.7672L230.119 72.7633ZM228.107 70.7614C227.248 70.7614 226.808 70.4293 226.808 69.7653C226.808 69.15 227.179 68.7789 227.912 68.6617L230.109 68.2614V68.5641C230.109 69.2574 229.933 69.7946 229.572 70.1852C229.211 70.5758 228.722 70.7614 228.107 70.7614ZM5.72437 97.359C5.4021 98.1012 4.83569 98.4625 4.02515 98.4625C3.62476 98.4625 3.29272 98.4039 3.02905 98.2672V100.66L3.22437 100.728C3.36108 100.787 3.56616 100.836 3.85913 100.884C4.14233 100.943 4.4353 100.963 4.72827 100.963C6.3689 100.963 7.62866 99.7614 8.5271 97.359L12.4236 86.9586H9.63062L7.32593 93.4625L5.03101 86.9586H2.22827L6.0271 96.6656L5.72437 97.359ZM12.5212 94.361V99.068H15.2166V96.7633H20.822V99.068H23.5173V94.361H22.2185V86.9586H14.7185V89.6637C14.7185 90.2789 14.6599 90.8649 14.5427 91.4215C14.4255 91.9684 14.2986 92.4176 14.1619 92.7496C14.0251 93.0817 13.8591 93.3942 13.6736 93.6774C13.488 93.9508 13.3611 94.1266 13.283 94.2047C13.2048 94.2731 13.156 94.3317 13.1169 94.3707L12.5212 94.361ZM17.2185 89.3707H19.5232V94.3707H15.9197L16.2615 93.8531C16.4763 93.5016 16.6814 92.9645 16.8962 92.2321C17.1111 91.4996 17.2185 90.7477 17.2185 89.9762V89.3707ZM30.7244 96.7633H33.4197V90.6598C33.4197 89.5465 33.0291 88.6188 32.2478 87.8766C31.4666 87.1344 30.4509 86.7633 29.2205 86.7633C28.7419 86.7633 28.2732 86.8414 27.8142 86.9781C27.365 87.1149 26.9939 87.2711 26.7107 87.4371C26.4373 87.6031 26.1736 87.7887 25.9392 88.0035C25.7048 88.2184 25.5486 88.3746 25.4802 88.4625C25.4119 88.5504 25.3533 88.6188 25.3142 88.6676L26.8083 90.1617L27.033 89.9274C27.1892 89.7516 27.4431 89.5856 27.8044 89.4196C28.1755 89.2535 28.5759 89.1656 29.0154 89.1656C29.5525 89.1656 29.9724 89.3024 30.2654 89.5563C30.5681 89.8199 30.7146 90.152 30.7146 90.5621L27.6091 91.1188C26.7107 91.2848 25.9978 91.6364 25.4802 92.1637C24.9724 92.7008 24.7087 93.3649 24.7087 94.1656C24.7087 94.9469 25.0212 95.6012 25.6267 96.1481C26.2419 96.6949 27.033 96.9586 28.0095 96.9586C28.5173 96.9586 29.0056 96.8512 29.4744 96.6364C29.9431 96.4215 30.2556 96.2457 30.3923 96.109C30.5291 95.9723 30.6365 95.8649 30.7146 95.7672L30.7244 96.7633ZM28.7126 94.7614C27.8533 94.7614 27.4138 94.4293 27.4138 93.7653C27.4138 93.15 27.7849 92.7789 28.5173 92.6617L30.7146 92.2614V92.5641C30.7146 93.2574 30.5388 93.7946 30.1775 94.1852C29.8162 94.5758 29.3279 94.7614 28.7126 94.7614ZM37.0232 86.9586V89.6637C37.0232 91.0309 36.9451 92.066 36.8083 92.7789C36.6716 93.4918 36.4861 93.9508 36.2615 94.1559C36.0271 94.361 35.7146 94.4586 35.324 94.4586C35.1287 94.4586 34.9236 94.4293 34.7283 94.361V96.7633L34.9041 96.8414C35.0115 96.8805 35.1775 96.9293 35.4119 96.9879C35.6462 97.0465 35.8806 97.066 36.1248 97.066C36.8669 97.066 37.4822 96.8805 37.9705 96.5094C38.4587 96.1383 38.8494 95.4059 39.1619 94.3317C39.4744 93.2574 39.6306 91.8024 39.6306 89.9762V89.3707H42.2283V96.7731H44.9236V86.9684L37.0232 86.9586ZM56.8279 92.7594L56.9255 91.6656C56.9255 90.2692 56.4568 89.1071 55.5291 88.1696C54.5916 87.2321 53.4294 86.7633 52.033 86.7633C50.6267 86.7633 49.4255 87.2711 48.4294 88.2672C47.4236 89.2633 46.9255 90.4645 46.9255 91.861C46.9255 93.2672 47.4333 94.4684 48.449 95.4645C49.4646 96.4606 50.6853 96.9586 52.1306 96.9586C52.6384 96.9586 53.1267 96.9 53.6052 96.7828C54.0837 96.6656 54.4744 96.5387 54.7771 96.3824C55.0701 96.2262 55.3533 96.0504 55.6267 95.8551C55.8904 95.6598 56.0662 95.5231 56.1443 95.4449L56.3298 95.2594L54.9333 93.4625L54.6501 93.7653C54.4744 93.9703 54.1619 94.1754 53.7322 94.3707C53.3025 94.566 52.8337 94.6637 52.3259 94.6637C51.6228 94.6637 51.0369 94.4879 50.5779 94.1168C50.1091 93.7457 49.8259 93.2965 49.7283 92.7594H56.8279ZM52.033 89.068C52.5994 89.068 53.0876 89.2438 53.4783 89.5758C53.8689 89.9176 54.1228 90.3473 54.2302 90.8649H49.7283C49.8845 90.3375 50.1677 89.8981 50.5681 89.566C50.9685 89.234 51.4568 89.068 52.033 89.068ZM61.6326 93.0621H65.4314V96.7633H68.1365V86.9586H65.4314V90.6598H61.6326V86.9586H58.9373V96.7633H61.6326V93.0621ZM80.031 86.9586H76.9353L73.4294 90.9625V86.9586H70.7341V96.7633H73.4294V94.361L74.6306 92.9645L77.2283 96.7633H80.2361L76.3298 91.1676L80.031 86.9586ZM83.8298 97.359C83.5076 98.1012 82.9412 98.4625 82.1306 98.4625C81.7302 98.4625 81.3982 98.4039 81.1345 98.2672V100.66L81.3298 100.728C81.4666 100.787 81.6716 100.836 81.9646 100.884C82.2478 100.943 82.5408 100.963 82.8337 100.963C84.4744 100.963 85.7341 99.7614 86.6326 97.359L90.5291 86.9586H87.7361L85.4314 93.4625L83.1365 86.9586H80.3337L84.1326 96.6656L83.8298 97.359Z" fill="white"/>
<path fill-rule="evenodd" clip-rule="evenodd" d="M23.9178 9.55055C23.9178 8.90754 24.1084 8.27897 24.4653 7.74433C24.8222 7.20969 25.3295 6.79298 25.9231 6.54691C26.5166 6.30084 27.1698 6.23647 27.7999 6.36191C28.43 6.48736 29.0088 6.79699 29.4631 7.25166C29.9174 7.70634 30.2267 8.28563 30.3521 8.91628C30.4774 9.54694 30.4131 10.2006 30.1672 10.7947C29.9214 11.3887 29.505 11.8965 28.9708 12.2537C28.4367 12.611 27.8086 12.8017 27.1662 12.8017C26.3047 12.8017 25.4784 12.4591 24.8693 11.8494C24.2601 11.2397 23.9178 10.4128 23.9178 9.55055Z" fill="#6FCF97"/>
<path d="M182.013 211.124C182.013 210.481 182.203 209.852 182.56 209.317C182.917 208.783 183.425 208.366 184.018 208.12C184.612 207.874 185.265 207.81 185.895 207.935C186.525 208.06 187.104 208.37 187.558 208.825C188.012 209.279 188.322 209.859 188.447 210.489C188.572 211.12 188.508 211.774 188.262 212.368C188.016 212.962 187.6 213.47 187.066 213.827C186.532 214.184 185.904 214.375 185.261 214.375C184.4 214.375 183.573 214.032 182.964 213.423C182.355 212.813 182.013 211.986 182.013 211.124Z" stroke="#2D9CDB" stroke-width="2" stroke-linecap="round" stroke-linejoin="round"/>
<path fill-rule="evenodd" clip-rule="evenodd" d="M293.814 7.89355L289.273 2.96795L295.801 1.47873L302.336 0L300.349 6.40084L298.362 12.8017L293.814 7.89355Z" fill="#9B51E0"/>
</svg>
