<svg width="217" height="233" viewBox="0 0 217 233" fill="none" xmlns="http://www.w3.org/2000/svg">
<path d="M51.861 231.15C52.637 224.784 53.8666 214.526 55.8723 205.025" stroke="#EEEEEE" stroke-miterlimit="10" stroke-linecap="round"/>
<path d="M161.206 231.15C160.43 224.784 159.2 214.526 157.194 205.025" stroke="#EEEEEE" stroke-miterlimit="10" stroke-linecap="round"/>
<path d="M69.0835 149.717C70.9242 143.824 72.9823 137.584 73.1098 130.638C73.3347 118.229 71.6102 110.779 71.8464 90.5863C72.0226 74.6424 86.2722 57.6227 106.524 57.6227C126.776 57.6227 137.64 71.4843 139.661 85.5611C141.715 99.9567 139.372 111.878 139.957 129.286C140.227 137.208 142.611 143.347 145.123 149.721" stroke="#EEEEEE" stroke-miterlimit="10" stroke-linecap="round"/>
<path d="M117.508 145.46C142.071 147.162 163.53 154.132 175.714 161.431C183.995 170.052 189.982 227.324 188.172 231.435" stroke="#EEEEEE" stroke-miterlimit="10" stroke-linecap="round"/>
<path d="M23.4029 232.361C22.6269 222.548 26.8969 187.556 40.0968 161.431C57.2931 151.669 76.0189 146.936 94.1525 145.529" stroke="#EEEEEE" stroke-miterlimit="10" stroke-linecap="round"/>
<path d="M51.861 231.435C52.637 225.069 53.8666 214.811 55.8723 205.31" stroke="#EEEEEE" stroke-miterlimit="10" stroke-linecap="round"/>
<path d="M161.206 231.435C160.43 225.069 159.2 214.811 157.194 205.31" stroke="#EEEEEE" stroke-miterlimit="10" stroke-linecap="round"/>
<path d="M82.8645 108.225C82.054 108.579 81.1719 108.729 80.293 108.66C79.4142 108.591 78.5644 108.307 77.8157 107.83C77.067 107.353 76.4414 106.699 75.992 105.922C75.5425 105.145 75.2824 104.268 75.2337 103.366C75.185 102.464 75.3491 101.564 75.7121 100.741C76.0752 99.9176 76.6264 99.1963 77.3192 98.6379C78.012 98.0794 78.8259 97.7003 79.692 97.5327C80.5581 97.365 81.4509 97.4137 82.2947 97.6747" stroke="#EEEEEE" stroke-miterlimit="10" stroke-linecap="round"/>
<path d="M130.723 97.4442H131.012C131.779 97.432 132.54 97.5849 133.246 97.8931C133.952 98.2012 134.587 98.6577 135.11 99.233C135.633 99.8084 136.032 100.49 136.282 101.233C136.532 101.977 136.627 102.766 136.561 103.549C136.495 104.332 136.269 105.093 135.898 105.781C135.527 106.469 135.02 107.07 134.408 107.545C133.796 108.02 133.094 108.358 132.347 108.537C131.6 108.716 130.825 108.733 130.071 108.586" stroke="#EEEEEE" stroke-miterlimit="10" stroke-linecap="round"/>
<path d="M105.845 161.427C100.008 161.374 94.1675 160.371 94.1675 158.596V129.178" stroke="#EEEEEE" stroke-miterlimit="10" stroke-linecap="round"/>
<path d="M117.467 130.239C117.489 138.188 117.519 151.922 117.444 158.596" stroke="#EEEEEE" stroke-miterlimit="10" stroke-linecap="round"/>
<path d="M94.1525 129.178C87.2357 123.581 82.5308 113.427 82.2347 101.743" stroke="#EEEEEE" stroke-miterlimit="10" stroke-linecap="round"/>
<path d="M130.588 95.7115C130.763 97.3368 130.851 98.9708 130.851 100.606C130.851 118.94 119.979 133.804 106.543 133.804C104.538 133.803 102.547 133.471 100.646 132.82" stroke="#EEEEEE" stroke-miterlimit="10" stroke-linecap="round"/>
<path d="M110.307 77.3855C102.036 85.1423 90.666 91.7965 82.5196 95.3656" stroke="#EEEEEE" stroke-miterlimit="10" stroke-linecap="round"/>
<path d="M125.527 92.7187C127.145 93.8341 128.836 94.834 130.588 95.7115" stroke="#EEEEEE" stroke-miterlimit="10" stroke-linecap="round"/>
<path d="M109.459 76.1177C111.117 78.6168 112.947 80.9908 114.936 83.2214" stroke="#EEEEEE" stroke-miterlimit="10" stroke-linecap="round"/>
<path d="M162.339 73.2408C162.339 72.5333 162.543 71.8418 162.927 71.2536C163.31 70.6654 163.855 70.2069 164.493 69.9362C165.131 69.6655 165.833 69.5947 166.51 69.7327C167.187 69.8707 167.809 70.2114 168.297 70.7116C168.785 71.2118 169.117 71.8491 169.252 72.543C169.387 73.2368 169.318 73.956 169.053 74.6096C168.789 75.2632 168.342 75.8218 167.768 76.2148C167.194 76.6078 166.519 76.8176 165.829 76.8176C164.903 76.8176 164.015 76.4408 163.361 75.77C162.706 75.0992 162.339 74.1894 162.339 73.2408V73.2408Z" stroke="#9B51E0" stroke-linecap="round" stroke-linejoin="round"/>
<path fill-rule="evenodd" clip-rule="evenodd" d="M52.3858 83.2425C52.3858 82.5358 52.5903 81.845 52.9734 81.2575C53.3565 80.6699 53.901 80.2119 54.5381 79.9415C55.1752 79.6711 55.8762 79.6003 56.5525 79.7382C57.2288 79.876 57.85 80.2163 58.3376 80.716C58.8252 81.2157 59.1573 81.8524 59.2918 82.5454C59.4263 83.2385 59.3573 83.9569 59.0934 84.6098C58.8295 85.2627 58.3826 85.8207 57.8093 86.2133C57.2359 86.6059 56.5619 86.8155 55.8723 86.8155C54.9476 86.8155 54.0608 86.439 53.407 85.769C52.7531 85.0989 52.3858 84.1901 52.3858 83.2425Z" fill="#6FCF97"/>
<path d="M208.141 168.761C208.141 168.055 208.346 167.364 208.729 166.776C209.112 166.189 209.656 165.731 210.293 165.46C210.93 165.19 211.632 165.119 212.308 165.257C212.984 165.395 213.605 165.735 214.093 166.235C214.581 166.734 214.913 167.371 215.047 168.064C215.182 168.757 215.113 169.476 214.849 170.129C214.585 170.781 214.138 171.339 213.565 171.732C212.991 172.125 212.317 172.334 211.628 172.334C210.703 172.334 209.816 171.958 209.162 171.288C208.508 170.618 208.141 169.709 208.141 168.761Z" stroke="#2D9CDB" stroke-width="2" stroke-linecap="round" stroke-linejoin="round"/>
<path d="M51.451 143.992L57.3723 115.399C57.8978 112.878 56.4876 111.892 54.8759 112.511L20.0664 126.242C17.6926 127.193 17.7277 128.556 19.6635 129.175L28.5629 132.027L49.2349 118.699C50.2072 118.036 51.0919 118.403 50.3648 119.067L33.6433 134.538L32.9951 143.947L39.1617 138.754L48.1838 145.561C49.8393 146.512 51.0043 146.01 51.451 143.992Z" stroke="#2F80ED"/>
<path d="M210.834 110.203L210.834 110.203L210.84 110.209C211.009 110.376 211.087 110.53 211.115 110.669C211.143 110.808 211.129 110.979 211.037 111.195L211.035 111.199C210.94 111.429 210.824 111.566 210.706 111.649C210.589 111.73 210.433 111.782 210.213 111.782H201.899H201.152L201.437 112.473L205.809 123.075C205.908 123.33 205.905 123.56 205.811 123.793C205.714 124.031 205.558 124.196 205.327 124.305L201.488 125.971C201.246 126.069 201.031 126.066 200.812 125.972C200.585 125.876 200.423 125.719 200.313 125.476L196.159 115.412L195.87 114.71L195.339 115.253L188.55 122.206C188.363 122.396 188.164 122.478 187.928 122.478C187.827 122.478 187.72 122.457 187.603 122.408C187.384 122.312 187.251 122.196 187.17 122.073C187.088 121.95 187.035 121.785 187.035 121.552V88.0383C187.035 87.8059 187.088 87.6407 187.17 87.5177C187.251 87.3946 187.385 87.2784 187.603 87.1828C187.72 87.1332 187.827 87.1122 187.928 87.1122C188.183 87.1122 188.376 87.1973 188.54 87.3752L188.54 87.3753L188.55 87.3849L210.834 110.203Z" stroke="#EB5757"/>
<path d="M38.6088 34.0614C38.2576 33.7488 37.8491 33.511 37.4072 33.3618C36.9652 33.2126 36.4987 33.155 36.0348 33.1924C35.5709 33.2298 35.1189 33.3615 34.7052 33.5796C34.2915 33.7978 33.9244 34.0982 33.6253 34.4632C33.3262 34.8282 33.1011 35.2505 32.9631 35.7055C32.8251 36.1606 32.777 36.6392 32.8215 37.1135C32.8661 37.5878 33.0025 38.0482 33.2227 38.4679C33.443 38.8877 33.7426 39.2583 34.1043 39.5582C34.5718 39.9505 35.1318 40.2103 35.7281 40.3118C36.3244 40.4132 36.9363 40.3527 37.5027 40.1362L38.6088 34.0614ZM38.6088 34.0614C39.0679 34.4643 39.4155 34.9837 39.6166 35.5676C39.8178 36.1514 39.8655 36.7791 39.7549 37.3878M38.6088 34.0614L39.7549 37.3878M39.7549 37.3878L63.472 57.765M39.7549 37.3878L63.472 57.765M63.472 57.765L63.8661 58.6957L64.3264 58.499M63.472 57.765L64.3264 58.499M64.3264 58.499L64.6529 58.119L63.8869 57.4609M64.3264 58.499L63.8869 57.4609M63.8869 57.4609L48.742 21.6883L25.4443 11.0386L9.67509 30.2813L23.9673 51.9279L63.8869 57.4609ZM1.24007 23.0462L0.929811 23.4248L1.29957 23.7425L6.66793 28.3549L7.05531 28.6877L7.38036 28.291L23.1496 9.04832L23.4599 8.66972L23.0901 8.35203L17.7218 3.73965L17.3344 3.40682L17.0093 3.80347L1.24007 23.0462ZM61.9536 61.7334L62.4006 60.8674L37.8291 39.7562L37.604 39.5628L37.326 39.6691C36.8433 39.8535 36.322 39.9051 35.8138 39.8187C35.3055 39.7322 34.8269 39.5105 34.4263 39.1743L34.4241 39.1725C34.1135 38.9149 33.8554 38.596 33.6655 38.234C33.4755 37.872 33.3577 37.4744 33.3192 37.0646C33.2807 36.6548 33.3223 36.2416 33.4413 35.849C33.5603 35.4565 33.7543 35.093 34.0113 34.7794C34.2682 34.4658 34.583 34.2085 34.9369 34.0219C35.2907 33.8353 35.6769 33.7229 36.0729 33.691C36.469 33.6591 36.8677 33.7082 37.2457 33.8358C37.6238 33.9634 37.9741 34.1672 38.2758 34.4357L38.2784 34.438C38.6719 34.7833 38.9708 35.2294 39.144 35.7323C39.3173 36.2352 39.3584 36.7761 39.2632 37.3003L39.212 37.5819L39.4285 37.7679L63.9999 58.8791L64.7867 58.3024L49.2023 21.4916L49.1269 21.3136L48.9512 21.2332L25.6535 10.5835L25.3033 10.4234L25.0584 10.7223L9.28912 29.9651L9.05485 30.2509L9.25773 30.5582L23.55 52.2048L23.6574 52.3675L23.8468 52.4138L61.9536 61.7334Z" stroke="#27AE60"/>
<path d="M111.862 6.2134L117.316 17.3823L117.435 17.6247L117.702 17.6589L128.58 19.0512L121.088 27.6542L120.933 27.8317L120.972 28.064L123.014 40.4441L112.09 34.8514L111.862 34.7348L111.634 34.8514L100.712 40.4433L102.772 28.0647L102.811 27.8317L102.656 27.6538L95.1453 19.0511L106.022 17.6589L106.29 17.6247L106.408 17.3823L111.862 6.2134Z" stroke="#F2C94C"/>
<path fill-rule="evenodd" clip-rule="evenodd" d="M174.193 31.8825L169.319 26.4692L176.326 24.8326L183.34 23.2075L181.207 30.242L179.074 37.2765L174.193 31.8825Z" fill="#9B51E0"/>
</svg>
