<svg width="293" height="249" viewBox="0 0 293 249" fill="none" xmlns="http://www.w3.org/2000/svg">
<path d="M88.8918 234.98L88.6765 236.498C88.4285 238.232 88.832 239.996 89.8102 241.454L88.8918 234.98Z" fill="#DFDFDF"/>
<path d="M37.5111 50.0481C40.1049 47.0232 43.2978 44.9011 47.219 44.0303" stroke="white" stroke-linecap="round" stroke-linejoin="round"/>
<path d="M28.1046 76.4766C28.1907 75.8158 28.2828 75.1562 28.3809 74.4978" stroke="white" stroke-linecap="round" stroke-linejoin="round"/>
<path d="M55.2981 43.9055C85.1499 49.0955 76.5686 113.998 76.0627 119.423C73.4223 123.919 31.4984 128.857 28.9728 126.12C28.4705 122.405 26.1494 103.7 27.3046 85.034" stroke="white" stroke-linecap="round" stroke-linejoin="round"/>
<path d="M15.7958 61.6863C10.8916 66.0942 1.33446 76.5346 1.33446 80.9034C1.33446 85.969 7.82433 86.719 12.5204 86.719C18.3358 86.719 27.3907 85.2687 32.2519 83.8752C32.7254 86.4915 34.5443 88.4431 36.7183 88.4431C39.2547 88.4431 41.3104 85.7948 41.3104 82.528C41.3104 79.2611 39.2547 76.6092 36.7183 76.6092C36.2622 76.6093 35.8104 76.6962 35.3874 76.8652C35.3456 76.8092 35.2917 76.7632 35.2296 76.7306C35.1675 76.698 35.0988 76.6796 35.0286 76.6768C33.8555 76.6768 22.7413 76.268 21.5682 76.4706C22.3538 75.8023 23.4983 74.6932 24.5745 73.6268" stroke="white" stroke-linecap="round" stroke-linejoin="round"/>
<path d="M28.3917 74.4161C28.0427 74.6722 27.6344 74.8372 27.2042 74.896C24.3593 74.896 14.4398 64.669 15.5196 58.3166C16.5995 51.9643 36.7148 47.4924 40.0691 51.168C45.2603 56.8556 32.955 71.5652 28.3917 74.4161" stroke="white" stroke-linecap="round" stroke-linejoin="round"/>
<path d="M46.7527 33.4333C46.7527 33.4333 47.3231 46.2803 47.3338 48.0968C47.3338 49.2059 51.3411 49.7426 54.4479 49.4262" stroke="white" stroke-linecap="round" stroke-linejoin="round"/>
<path d="M54.186 40.1269C54.6538 40.1947 55.127 40.2197 55.5995 40.2016C61.501 39.9705 66.0249 33.1952 65.702 25.0655C65.6118 21.8971 64.7067 18.8039 63.0723 16.0791" stroke="white" stroke-linecap="round" stroke-linejoin="round"/>
<path d="M45.4038 23.4302C44.8684 23.4605 44.3476 23.6144 43.883 23.8797C43.4183 24.1449 43.0226 24.5141 42.7276 24.9577C42.4325 25.4014 42.2461 25.9073 42.1834 26.435C42.1207 26.9627 42.1833 27.4976 42.3663 27.997C42.5493 28.4965 42.8476 28.9466 43.2374 29.3115C43.6272 29.6765 44.0976 29.946 44.6113 30.0988C45.1249 30.2515 45.6674 30.2832 46.1955 30.1913C46.7237 30.0993 47.2229 29.8863 47.6532 29.5693" stroke="white" stroke-linecap="round" stroke-linejoin="round"/>
<path d="M41.174 25.3926C39.3157 24.1057 38.8385 14.9273 43.348 11.8489C47.7428 8.84507 61.2462 6.57357 66.9684 2.40381" stroke="white" stroke-linecap="round" stroke-linejoin="round"/>
<path d="M63.3019 10.7649C64.6185 9.81579 68.6832 4.29535 69.3325 2.79883" stroke="white" stroke-linecap="round" stroke-linejoin="round"/>
<path d="M67.3307 12.8938C68.7657 11.3617 69.7595 8.7347 70.2008 6.9502" stroke="white" stroke-linecap="round" stroke-linejoin="round"/>
<path d="M58.252 23.7598C58.3272 23.2531 58.0274 22.7899 57.5824 22.7251C57.1374 22.6603 56.7158 23.0185 56.6406 23.5252C56.5655 24.0319 56.8653 24.4951 57.3103 24.5599C57.7552 24.6247 58.1769 24.2665 58.252 23.7598Z" fill="white"/>
<path d="M60.9449 22.5203C60.9808 23.5227 61.5799 26.2811 62.7172 28.6982" stroke="white" stroke-linecap="round" stroke-linejoin="round"/>
<path d="M58.9861 32.832C58.5695 32.7386 58.1831 32.5434 57.8623 32.2641C57.5414 31.9848 57.2963 31.6304 57.1493 31.2332" stroke="white" stroke-linecap="round" stroke-linejoin="round"/>
<path d="M46.1428 126.212L61.4472 237.5H71.3846L76.0484 119.423C74.4878 122.103 58.9646 124.94 46.1428 126.212Z" fill="#EB5757"/>
<path d="M46.1428 174.696C48.2487 173.096 56.5179 153.043 56.7296 151.319C56.8982 149.937 52.8586 132.497 51.2514 125.64C40.5462 126.976 30.1891 127.439 28.9729 126.116C28.9729 126.116 23.2867 176.665 25.2741 182.324C27.2616 187.983 83.3921 224.896 83.3921 224.896L88.6084 218.007L46.1428 174.696Z" fill="#EB5757"/>
<path d="M87.6828 218.348L96.0417 223.797L90.3196 245.037L87.5393 225.432L84.0917 223.239" stroke="white" stroke-linecap="round" stroke-linejoin="round"/>
<path d="M70.6277 237.501V247.962H49.9671L64.371 241.077V237.209" stroke="white" stroke-linecap="round" stroke-linejoin="round"/>
<path d="M91.2291 27.5332C91.2291 26.8954 91.4198 26.2719 91.7771 25.7416C92.1345 25.2112 92.6423 24.7979 93.2365 24.5538C93.8307 24.3097 94.4845 24.2459 95.1153 24.3703C95.7461 24.4947 96.3255 24.8019 96.7803 25.2529C97.2351 25.7039 97.5448 26.2785 97.6703 26.9041C97.7957 27.5296 97.7314 28.178 97.4852 28.7673C97.2391 29.3566 96.8223 29.8602 96.2876 30.2146C95.7528 30.5689 95.1241 30.7581 94.4809 30.7581C93.6185 30.7581 92.7914 30.4183 92.1816 29.8135C91.5717 29.2087 91.2291 28.3885 91.2291 27.5332V27.5332Z" stroke="#9B51E0" stroke-linecap="round" stroke-linejoin="round"/>
<path fill-rule="evenodd" clip-rule="evenodd" d="M176.822 166.54C176.822 165.903 177.013 165.28 177.37 164.75C177.727 164.221 178.234 163.808 178.828 163.564C179.421 163.32 180.074 163.256 180.705 163.381C181.335 163.505 181.913 163.812 182.368 164.262C182.822 164.713 183.131 165.287 183.257 165.912C183.382 166.536 183.318 167.184 183.072 167.773C182.826 168.361 182.41 168.865 181.875 169.219C181.341 169.573 180.713 169.761 180.071 169.761C179.209 169.761 178.383 169.422 177.774 168.818C177.165 168.214 176.822 167.394 176.822 166.54Z" fill="#6FCF97"/>
<path d="M108.72 176.6C108.72 175.963 108.911 175.34 109.268 174.811C109.624 174.281 110.132 173.868 110.725 173.624C111.319 173.38 111.972 173.317 112.602 173.441C113.232 173.565 113.811 173.872 114.265 174.322C114.72 174.773 115.029 175.347 115.154 175.972C115.28 176.597 115.215 177.244 114.969 177.833C114.724 178.422 114.307 178.925 113.773 179.279C113.239 179.633 112.611 179.822 111.968 179.822C111.107 179.822 110.281 179.482 109.672 178.878C109.062 178.274 108.72 177.455 108.72 176.6Z" stroke="#2D9CDB" stroke-width="2" stroke-linecap="round" stroke-linejoin="round"/>
<path d="M151.199 28.9065L156.253 38.9214L156.373 39.1595L156.637 39.1923L166.686 40.4369L159.774 48.1167L159.612 48.2966L159.653 48.5352L161.541 59.6112L151.421 54.5973L151.199 54.4874L150.977 54.5973L140.858 59.6104L142.763 48.5359L142.805 48.2966L142.642 48.1162L135.714 40.4367L145.76 39.1923L146.025 39.1595L146.145 38.9214L151.199 28.9065Z" stroke="#F2C94C"/>
<path fill-rule="evenodd" clip-rule="evenodd" d="M192.782 18.1356L188.241 13.255L194.769 11.7794L201.304 10.3142L199.317 16.6565L197.329 22.9988L192.782 18.1356Z" fill="#9B51E0"/>
<path d="M243.127 121.833C243.127 121.833 225.027 183.08 225.027 184.322C225.027 185.563 275.545 226.469 276.481 226.469C277.417 226.469 281.305 218.997 281.305 217.699C281.305 216.4 269.28 206.57 269.28 206.57L243.127 121.833Z" fill="#27AE60"/>
<path d="M240.015 87.5046C233.504 83.4435 215.302 71.825 211.922 71.825C207.987 71.825 208.311 74.1236 208.311 74.818C208.311 75.5125 208.795 80.1054 219.793 82.9359C220.696 84.0347 234.675 98.0815 240.475 101.571" stroke="white" stroke-linecap="round" stroke-linejoin="round"/>
<path d="M271.693 48.124C269.608 44.3618 266.956 41.7401 263.6 40.8215" stroke="white" stroke-linecap="round" stroke-linejoin="round"/>
<path d="M272.012 122.776C274.743 122.143 276.67 121.205 277.091 119.884C277.366 119.038 277.892 114.663 278.287 108.369" stroke="white" stroke-linecap="round" stroke-linejoin="round"/>
<path d="M253.68 42.2981C232.832 54.1981 241.639 119.766 243.127 121.834C244.041 123.099 253.91 124.145 262.791 123.811" stroke="white" stroke-linecap="round" stroke-linejoin="round"/>
<path d="M217.748 79.3958L204.665 70.9439L211.818 67.0256L224.579 74.983L217.748 79.3958Z" fill="#EB5757"/>
<path d="M263.389 75.7651C263.882 80.7449 265.567 91.8954 267.825 97.7959C266.792 103.07 261.112 132.59 261.112 132.59L265.104 137.706C265.104 137.706 279.711 106.971 280.449 102.165C281.086 98.0157 279.855 79.7032 279.316 74.0093" stroke="white" stroke-linecap="round" stroke-linejoin="round"/>
<path d="M265.98 50.2752C267.211 48.8776 268.677 48.0139 270.402 47.9765C279.311 47.7831 281.818 71.2425 280.316 73.3258C278.815 75.4092 262.944 76.998 261.14 75.0136C260.757 74.5895 260.528 73.1281 260.497 71.0865" stroke="white" stroke-linecap="round" stroke-linejoin="round"/>
<path d="M258.639 45.7859C261.118 45.7727 263.6 45.2804 263.6 44.3487V30.8818" stroke="white" stroke-linecap="round" stroke-linejoin="round"/>
<path d="M253.68 37.2241V42.2983" stroke="white" stroke-linecap="round" stroke-linejoin="round"/>
<path d="M253.68 37.2239C249.455 35.6087 246.56 29.0247 246.964 21.3113" stroke="white" stroke-linecap="round" stroke-linejoin="round"/>
<path d="M263.937 30.1038C263.828 30.3717 263.715 30.6353 263.6 30.8923" stroke="white" stroke-linecap="round" stroke-linejoin="round"/>
<path d="M243.451 21.9729C242.342 21.9729 236.797 20.6544 236.797 16.9184C236.797 15.3801 237.684 13.622 237.684 11.864C237.684 10.3256 237.019 8.56757 237.019 6.36997C237.019 2.63406 240.789 0.875977 242.786 0.875977C246.556 0.875977 247.443 3.51309 253.431 3.51309C256.98 3.51309 258.532 2.63406 260.528 2.63406C266.738 2.63406 267.625 10.3256 267.625 11.2047C267.625 14.9406 272.727 15.1604 272.727 19.116C272.727 22.041 270.287 25.3704 267.728 26.678" stroke="white" stroke-linecap="round" stroke-linejoin="round"/>
<path d="M263.966 25.4893C264.584 25.4893 265.176 25.7324 265.613 26.1651C266.049 26.5978 266.295 27.1847 266.295 27.7966C266.295 28.4086 266.049 28.9955 265.613 29.4282C265.176 29.8609 264.584 30.104 263.966 30.104" stroke="white" stroke-linecap="round" stroke-linejoin="round"/>
<path d="M250.304 23.6584C250.304 24.5529 250.096 26.2055 249.503 26.9285" stroke="white" stroke-linecap="round" stroke-linejoin="round"/>
<path d="M253.848 28.144C253.848 28.7919 253.318 30.092 252.134 30.092" stroke="white" stroke-linecap="round" stroke-linejoin="round"/>
<path d="M252.662 24.4221C252.898 24.4221 253.09 24.1035 253.09 23.7105C253.09 23.3174 252.898 22.9988 252.662 22.9988C252.425 22.9988 252.234 23.3174 252.234 23.7105C252.234 24.1035 252.425 24.4221 252.662 24.4221Z" fill="white"/>
<path d="M265.086 137.706L261.094 132.59L262.748 123.998C256.13 124.343 249.498 123.612 243.118 121.833C244.307 131.573 261.083 232.372 261.083 232.372H270.793L270.837 231.778L276.475 120.829C275.765 121.334 274.257 121.98 272.108 122.565C268.499 130.533 265.086 137.706 265.086 137.706Z" fill="#27AE60"/>
<path d="M269.553 232.363V245.037H250.874L264.363 239.018V231.941" stroke="white" stroke-linecap="round" stroke-linejoin="round"/>
<path d="M280.618 218.578L291.561 225.137L281.891 240.971L283.676 226.421L277.568 222.757" stroke="white" stroke-linecap="round" stroke-linejoin="round"/>
</svg>
