<svg width="19" height="19" viewBox="0 0 19 19" fill="none" xmlns="http://www.w3.org/2000/svg">
<path d="M16.0841 0.567017H2.08411C1.55367 0.567017 1.04497 0.77773 0.669893 1.1528C0.29482 1.52788 0.0841064 2.03658 0.0841064 2.56702V16.567C0.0841064 17.0975 0.29482 17.6062 0.669893 17.9812C1.04497 18.3563 1.55367 18.567 2.08411 18.567H16.0841C16.6145 18.567 17.1232 18.3563 17.4983 17.9812C17.8734 17.6062 18.0841 17.0975 18.0841 16.567V2.56702C18.0841 2.03658 17.8734 1.52788 17.4983 1.1528C17.1232 0.77773 16.6145 0.567017 16.0841 0.567017ZM7.08411 14.567L2.08411 9.56702L3.49411 8.15702L7.08411 11.737L14.6741 4.14702L16.0841 5.56702L7.08411 14.567Z" fill="#27AE60"/>
</svg>
