<svg width="19" height="19" viewBox="0 0 19 19" fill="none" xmlns="http://www.w3.org/2000/svg">
<path d="M18.7925 16.7114L13.6385 11.5574C14.5913 10.1093 14.9729 8.35913 14.7095 6.64581C14.446 4.93249 13.5562 3.37787 12.2124 2.28292C10.8685 1.18798 9.16617 0.630614 7.43496 0.718736C5.70374 0.806858 4.0668 1.5342 2.84106 2.75994C1.61532 3.98568 0.887981 5.62262 0.799859 7.35383C0.711738 9.08505 1.2691 10.7874 2.36405 12.1313C3.45899 13.4751 5.01362 14.3649 6.72694 14.6284C8.44026 14.8918 10.1904 14.5102 11.6385 13.5574L16.7925 18.7114L18.7925 16.7114ZM2.79249 7.71137C2.79249 4.95437 5.03549 2.71136 7.79249 2.71136C10.5495 2.71136 12.7925 4.95437 12.7925 7.71137C12.7925 10.4684 10.5495 12.7114 7.79249 12.7114C5.03549 12.7114 2.79249 10.4684 2.79249 7.71137Z" fill="white"/>
</svg>
