<svg width="29" height="26" viewBox="0 0 29 26" fill="none" xmlns="http://www.w3.org/2000/svg">
<path d="M15.4163 8.21243C12.9914 8.21243 11.0211 10.2117 11.0211 12.6722C11.0211 15.1328 12.9914 17.1321 15.4163 17.1321C17.8411 17.1321 19.8114 15.1328 19.8114 12.6722C19.8114 10.202 17.8411 8.21243 15.4163 8.21243ZM15.6909 0.128996V0.119385H0.00488281V25.1098H0.061717L7.22274 17.8433L7.86686 18.4969L9.23087 17.1032C8.35942 15.8537 7.83844 14.3158 7.83844 12.6626C7.83844 8.41427 11.2295 4.97329 15.4163 4.97329C19.603 4.97329 22.9941 8.41427 22.9941 12.6626C22.9941 16.911 19.603 20.352 15.4163 20.352C13.9007 20.352 12.4893 19.9002 11.3053 19.1217L9.89392 20.5538L10.538 21.2074L6.6923 25.1098H15.2079C15.3689 25.1194 15.5299 25.1194 15.6909 25.1194C22.492 25.1194 28.0049 19.5254 28.0049 12.6242C28.0049 5.723 22.492 0.128996 15.6909 0.128996ZM15.4163 17.1225C17.8411 17.1225 19.8114 15.1232 19.8114 12.6626C19.8114 10.202 17.8411 8.20281 15.4163 8.20281C12.9914 8.20281 11.0211 10.202 11.0211 12.6626C11.0306 15.1232 12.9914 17.1225 15.4163 17.1225Z" fill="white"/>
</svg>
