<svg width="28" height="25" viewBox="0 0 28 25" fill="none" xmlns="http://www.w3.org/2000/svg">
<path d="M15.4114 8.09304C12.9865 8.09304 11.0162 10.0923 11.0162 12.5529C11.0162 15.0135 12.9865 17.0127 15.4114 17.0127C17.8363 17.0127 19.8065 15.0135 19.8065 12.5529C19.8065 10.0827 17.8363 8.09304 15.4114 8.09304ZM15.6861 0.00961154V0H0V24.9904H0.0568341L7.21786 17.724L7.86198 18.3775L9.22598 16.9839C8.35454 15.7343 7.83356 14.1965 7.83356 12.5433C7.83356 8.29489 11.2246 4.8539 15.4114 4.8539C19.5981 4.8539 22.9892 8.29489 22.9892 12.5433C22.9892 16.7916 19.5981 20.2326 15.4114 20.2326C13.8958 20.2326 12.4844 19.7809 11.3004 19.0023L9.88904 20.4344L10.5332 21.088L6.68742 24.9904H15.203C15.364 25 15.525 25 15.6861 25C22.4871 25 28 19.406 28 12.5048C28 5.60361 22.4871 0.00961154 15.6861 0.00961154ZM15.4114 17.0031C17.8363 17.0031 19.8065 15.0038 19.8065 12.5433C19.8065 10.0827 17.8363 8.08343 15.4114 8.08343C12.9865 8.08343 11.0162 10.0827 11.0162 12.5433C11.0257 15.0038 12.9865 17.0031 15.4114 17.0031Z" fill="white"/>
</svg>
