<svg id="svg" data-name="Слой 1" xmlns="http://www.w3.org/2000/svg" viewBox="0 0 40.86 24.05" preserveAspectRatio="false">
    <animateTransform attributeName="transform"
                      attributeType="XML"
                      type="rotate"
                      from="0 0 0"
                      to="45 0 0"
                      dur="1s"
                      begin="click"
                      fill="freeze"
                      />
    <defs>
        <style>.cls-1{fill:#fff;}
        </style>
    </defs>
    <title>menuButton</title>
    <path class="cls-1" d="M40.22,9.8H.92a.81.81,0,0,1-.55-.23.77.77,0,0,1,0-1.1.81.81,0,0,1,.55-.23h39.3a.79.79,0,0,1,
    .55.23.77.77,0,0,1,0,1.1A.79.79,0,0,1,40.22,9.8Z" transform="translate(-0.14 -8.24)">

    </path>
    <path class="cls-1" d="M40.22,21.05H.92a.81.81,0,0,1-.55-.23.77.77,0,0,1,0-1.1.81.81,0,0,1,
    .55-.23h39.3a.79.79,0,0,1,.55.23.77.77,0,0,1,0,1.1A.79.79,0,0,1,40.22,21.05Z" transform="translate(-0.14 -8.24)"/>
    <path class="cls-1" d="M40.22,32.29H.92a.8.8,0,0,1-.55-.22.83.83,0,0,1-.23-.55A.81.81,0,0,1,.37,31a.76.76,0,0,1,.55-.23h39.3a.75.75,0,0,1,.55.23.76.76,0,0,1,.23.55.77.77,0,0,1-.78.77Z" transform="translate(-0.14 -8.24)"/>
</svg>