<svg width="15" height="15" viewBox="0 0 15 15" fill="none" xmlns="http://www.w3.org/2000/svg">
<path d="M7.38314 0.536133C5.98219 0.536133 4.6127 0.951563 3.44785 1.72989C2.283 2.50822 1.37512 3.61448 0.838995 4.90879C0.302874 6.2031 0.1626 7.62732 0.435912 9.00136C0.709224 10.3754 1.38385 11.6375 2.37447 12.6281C3.36509 13.6188 4.62722 14.2934 6.00125 14.5667C7.37528 14.84 8.79951 14.6997 10.0938 14.1636C11.3881 13.6275 12.4944 12.7196 13.2727 11.5548C14.051 10.3899 14.4665 9.02042 14.4665 7.61947C14.4665 6.68927 14.2833 5.76818 13.9273 4.90879C13.5713 4.0494 13.0496 3.26854 12.3918 2.61079C11.7341 1.95304 10.9532 1.43129 10.0938 1.07532C9.23443 0.719349 8.31334 0.536133 7.38314 0.536133ZM9.63564 11.2688C9.60921 11.335 9.56892 11.3947 9.51748 11.444C9.46604 11.4934 9.40464 11.5311 9.33741 11.5547C9.27018 11.5783 9.19867 11.5873 9.12769 11.581C9.05671 11.5747 8.9879 11.5532 8.92589 11.5181L7.00277 10.0235L5.76885 11.1625C5.74021 11.1837 5.70671 11.1973 5.67144 11.2021C5.63617 11.207 5.60024 11.2028 5.56698 11.1902L5.80356 9.07297L5.81064 9.07934L5.8156 9.03755C5.8156 9.03755 9.27581 5.88688 9.41677 5.75301C9.55985 5.61913 9.51239 5.59009 9.51239 5.59009C9.52089 5.42717 9.25668 5.59009 9.25668 5.59009L4.67164 8.53959L2.76268 7.88934C2.76268 7.88934 2.46943 7.78451 2.44181 7.55288C2.41277 7.32338 2.77189 7.19872 2.77189 7.19872L10.3631 4.18263C10.3631 4.18263 10.9871 3.90497 10.9871 4.36538L9.63564 11.2688Z" fill="white"/>
</svg>
